<svg height="512pt" viewBox="0 -65 512.00021 512" width="512pt" xmlns="http://www.w3.org/2000/svg"><path d="m251.660156 381.832031c4.792969 0 8.679688-3.886719 8.679688-8.679687 0-4.792969-3.886719-8.675782-8.679688-8.675782h-60.746094c-4.792968 0-8.675781 3.882813-8.675781 8.675782 0 4.792968 3.882813 8.679687 8.675781 8.679687zm0 0"/><path d="m121.492188 303.730469c0 9.585937-7.769532 17.355469-17.355469 17.355469-9.585938 0-17.355469-7.769532-17.355469-17.355469 0-9.585938 7.769531-17.355469 17.355469-17.355469 9.585937 0 17.355469 7.769531 17.355469 17.355469zm0 0"/><path d="m158.113281 360.136719c.921875-.691407 1.738281-1.507813 2.429688-2.429688zm0 0"/><path d="m433.898438 303.730469c0 9.585937-7.769532 17.355469-17.355469 17.355469-9.585938 0-17.355469-7.769532-17.355469-17.355469 0-9.585938 7.769531-17.355469 17.355469-17.355469 9.585937 0 17.355469 7.769531 17.355469 17.355469zm0 0"/><path d="m470.519531 360.136719c.921875-.691407 1.738281-1.507813 2.429688-2.429688zm0 0"/><path d="m472.167969 248.972656c-.085938-.175781-.261719-.261718-.347657-.433594h-.085937zm0 0"/><path d="m8.679688 381.832031h95.457031c1.472656 0 2.949219 0 4.335937-.085937 1.824219-.175782 3.648438-.261719 5.382813-.523438 1.734375-.257812 3.558593-.519531 5.292969-.867187.261718 0 .433593-.085938.695312-.085938 1.996094-.433593 3.902344-.953125 5.8125-1.476562 1.5-.414063 2.976562-.90625 4.425781-1.472657 1.214844-.433593 2.34375-.871093 3.472657-1.304687 2.253906-.953125 4.511718-1.996094 6.679687-3.121094 2.171875-1.128906 4.253906-2.34375 6.25-3.644531 2.035156-1.289062 4.003906-2.679688 5.902344-4.167969.453125-.351562.886719-.726562 1.300781-1.128906 1.472656-1.214844 2.863281-2.429687 4.25-3.730469.957031-.867187 1.824219-1.734375 2.691406-2.691406 1.648438-1.734375 3.210938-3.554688 4.6875-5.378906.085938 0 .085938-.085938.171875-.171875 1.488281-1.898438 2.878907-3.867188 4.164063-5.902344 1.304687-1.996094 2.519531-4.078125 3.648437-6.25 1.125-2.167969 2.167969-4.425781 3.121094-6.679687.523437-1.121094.960937-2.28125 1.304687-3.472657.566407-1.445312 1.058594-2.925781 1.472657-4.425781.519531-1.90625 1.042969-3.816406 1.476562-5.8125 0-.261719.085938-.433594.085938-.695312.347656-1.734376.609375-3.472657.867187-5.292969.261719-1.824219.347656-3.558594.523438-5.378907.085937-1.390624.085937-2.867187.085937-4.339843 0-1.824219-.085937-3.644531-.175781-5.46875v-.257813c.011719-.097656-.019531-.191406-.085938-.261718v-.175782c.011719-.519531-.015624-1.042968-.085937-1.558594 0-.347656-.085937-.609374-.085937-.957031h26.085937c0 .296875.09375.574219.121094.867188.375 4.453125 4.125 7.859375 8.589843 7.8125h87.472657c4.46875.046875 8.214843-3.359375 8.59375-7.8125 0-.292969.09375-.570313.121093-.867188h26.171876c-.347657 2.878907-.523438 5.777344-.519532 8.679688 0 1.472656 0 2.949219.085938 4.339843.085937 1.734376.261718 3.46875.519531 5.207032.089844.691406.175781 1.300781.261719 1.992187.171875 1.128907.347656 2.171875.519531 3.300781.433594 1.996094.867187 3.992188 1.476563 5.988282.191406.789062.421874 1.574218.695312 2.339844.699219 2.460937 1.566406 4.867187 2.601562 7.203124.722657 1.777344 1.53125 3.515626 2.429688 5.207032.261719.519531.519531 1.042968.867188 1.648437.609374 1.042969 1.214843 2.171875 1.910156 3.210938.347656.695312.867187 1.390625 1.300781 2.082031 1.214844 1.824219 2.429687 3.558594 3.734375 5.296875.152344.246094.324219.476563.519531.691406.152344.222657.324219.425781.519531.609375.175782.171875.261719.347656.433594.519532 1.300782 1.476562 2.605469 2.949218 3.90625 4.339843.765625.851563 1.578125 1.664063 2.429688 2.429688.710937.710937 1.464844 1.375 2.257812 1.996093.648438.65625 1.34375 1.265626 2.082032 1.820313.191406.191406.40625.347656.613281.523437h-81.234375c-4.789063 0-8.675782 3.882813-8.675782 8.675782 0 4.792968 3.886719 8.679687 8.675782 8.679687h130.171875c1.476562 0 2.949219 0 4.339843-.085937 1.820313-.175782 3.644532-.261719 5.378907-.523438 1.734375-.257812 3.558593-.519531 5.292969-.867187.261718 0 .433593-.085938.695312-.085938 1.996094-.433593 3.90625-.953125 5.8125-1.476562 1.5-.414063 2.980469-.90625 4.425781-1.472657 1.214844-.433593 2.34375-.871093 3.472657-1.304687 2.257812-.953125 4.511718-1.996094 6.683593-3.121094 2.167969-1.128906 4.25-2.34375 6.246094-3.644531 2.035156-1.289062 4.003906-2.679688 5.902344-4.167969.453125-.351562.886719-.726562 1.300781-1.128906 1.476562-1.214844 2.863281-2.429687 4.253906-3.730469.953125-.867187 1.820313-1.734375 2.6875-2.691406 1.648438-1.734375 3.210938-3.554688 4.6875-5.378906.085938 0 .085938-.085938.171875-.171875 1.488281-1.898438 2.878907-3.867188 4.167969-5.902344 1.300781-1.996094 2.515625-4.078125 3.644531-6.25 1.125-2.167969 2.167969-4.425781 3.121094-6.679687.523437-1.121094.960937-2.28125 1.304687-3.472657.566407-1.445312 1.0625-2.925781 1.472657-4.425781.523437-1.90625 1.042969-3.816406 1.476562-5.8125 0-.261719.085938-.433594.085938-.695312.347656-1.734376.609375-3.472657.867187-5.292969.261719-1.824219.347656-3.558594.523438-5.378907.085937-1.390624.085937-2.867187.085937-4.339843 0-1.476563 0-2.953125-.085937-4.339844-.089844-1.734375-.261719-3.472656-.523438-5.207031-.085937-.695313-.171875-1.300782-.257812-1.996094-.175782-1.039062-.347656-2.167969-.523438-3.296875-.257812-1.390625-.605468-2.691406-.953125-4.078125-.171875-.78125-.433593-1.648438-.695312-2.429688-.707031-2.828124-1.664063-5.585937-2.863281-8.246093-.871094-2.230469-1.886719-4.40625-3.035157-6.507813-.78125-1.476562-1.5625-2.949218-2.429687-4.339844-.414063-.78125-.875-1.535156-1.390625-2.253906-1.117188-1.71875-2.332031-3.371094-3.644531-4.949218-.265626-.390626-.558594-.765626-.867188-1.125-1.042969-1.304688-2.167969-2.519532-3.210938-3.644532-.328124-.445312-.707031-.855468-1.128906-1.214844 0-.089843 0-.089843-.085937-.175781-.867188-.78125-1.648438-1.734375-2.429688-2.515625-1.390625-1.300781-2.863281-2.605468-4.339843-3.90625-.605469-.519531-1.214844-.953125-1.820313-1.472656-.433594-.347656-.871094-.609375-1.304687-.957031h-.085938v-.085938l12.84375-19.265625c.210938-.3125.390625-.648437.539062-.996094 7.414063 5.519532 14.164063 11.882813 20.113282 18.960938 2.28125 2.9375 6.183594 4.097656 9.699218 2.878906 3.511719-1.21875 5.863282-4.539062 5.835938-8.261718v-33.148438c-.007812-6.75-1.582031-13.402344-4.597656-19.4375l-.175782-.433594c-1.238281.621094-2.605468.945313-3.992187.953125-.824219.011719-1.640625-.105469-2.429687-.347656l-63.175782-18.484375c-7.035156-2.0625-12.019531-8.320312-12.445312-15.640625-.429688-7.320313 3.789062-14.121094 10.535156-16.988281l32.109375-14.578125c-.691406-.433594-1.300781-.867188-1.996094-1.214844l-41.878906-23.960937c.792969-1.273438 1.230469-2.742188 1.265625-4.242188 0-57.855469-89.164062-85.269531-92.964844-86.414062-2.972656-.890626-6.191406-.128907-8.445312 1.996093-2.257813 2.128907-3.207032 5.296875-2.492188 8.316407.714844 3.015624 2.984375 5.421874 5.957032 6.3125 22.449218 6.71875 80.589843 32.367187 80.589843 69.789062.035157 1.496094.472657 2.960938 1.257813 4.234375l-53.324219 30.476563-34.105469 43.824218-21.433594 27.59375c-3.285156 4.234375-8.351562 6.703125-13.710937 6.683594h-72.980469c-3.4375.007812-6.792968-1.019531-9.632812-2.949219l-69.425782-46.167969c-2.839843-1.929687-6.195312-2.960937-9.632812-2.949218h-107.519531c-4.792969 0-8.675781 3.882812-8.675781 8.675781v17.355469c0 4.792968 3.882812 8.679687 8.675781 8.679687h8.679687l13.625 29.417969c.976563 2.304688 2.898438 4.074219 5.277344 4.855469s4.976562.5 7.128906-.777344c2.960938-1.804687 5.972656-3.46875 9.027344-5.03125 0 .085937.085938.257813.085938.347656l7.636718 22.996094c-.609375.347656-1.214844.691406-1.910156 1.039063-2.167969 1.214843-4.339844 2.519531-6.421875 3.90625-2.085937 1.378906-4.085937 2.886718-5.988281 4.511718-1.472656 1.214844-2.863282 2.429688-4.164063 3.730469-.519531.4375-.953125.871094-1.386719 1.304687-1.738281 1.734376-3.472656 3.644532-5.035156 5.550782-1.628906 1.902344-3.132812 3.902344-4.511718 5.988281-1.390626 2.085937-2.691407 4.253906-3.90625 6.421875-1.21875 2.226562-2.320313 4.515625-3.296876 6.855469-.519531 1.214843-.953124 2.34375-1.386718 3.558593-.78125 2.171876-1.476563 4.339844-2.085938 6.507813-1.777344 6.625-2.683594 13.449219-2.6875 20.308594 0 1.472656 0 2.949219.085938 4.339843.085937 1.734376.261718 3.46875.519531 5.207032.085937.691406.175781 1.300781.261719 1.992187.171875 1.128907.347656 2.171875.519531 3.300781.433594 1.996094.867187 3.992188 1.476563 5.988282.191406.789062.421874 1.574218.695312 2.339844.699219 2.460937 1.566406 4.867187 2.601562 7.203124.722657 1.777344 1.53125 3.515626 2.429688 5.207032.261719.519531.519531 1.042968.867188 1.648437.609374 1.042969 1.214843 2.171875 1.910156 3.210938.347656.695312.867187 1.390625 1.300781 2.082031 1.214844 1.824219 2.429687 3.558594 3.730469 5.296875.152344.246094.328125.476563.523437.691406.152344.222657.324219.425781.519531.609375.171876.171875.261719.347656.433594.519532 1.300782 1.476562 2.605469 2.949218 3.90625 4.339843.765625.851563 1.578125 1.664063 2.429688 2.429688 1.386718 1.300781 2.863281 2.601562 4.339844 3.816406.1875.191406.40625.347656.613281.523437h-46.519531c-4.792969 0-8.679688 3.882813-8.679688 8.675782 0 4.792968 3.886719 8.679687 8.679688 8.679687zm467.914062-86.695312c.925781 5.691406.925781 11.492187 0 17.183593-4.484375-.347656-7.949219-4.089843-7.949219-8.589843s3.464844-8.242188 7.949219-8.59375zm-432.507812 17.183593c-.925782-5.691406-.925782-11.492187 0-17.183593 4.484374.351562 7.945312 4.09375 7.945312 8.59375s-3.460938 8.242187-7.945312 8.589843zm23.6875 40.007813c-4.605469-3.390625-8.671876-7.457031-12.0625-12.0625 3.398437-2.597656 8.195312-2.261719 11.195312.78125 3.039062 3.027344 3.40625 7.820313.867188 11.28125zm36.363281 12.148437c-2.878907.035157-5.757813-.199218-8.59375-.695312.351562-4.484375 4.09375-7.949219 8.59375-7.949219s8.242187 3.464844 8.589843 7.949219c-2.835937.496094-5.710937.730469-8.589843.695312zm0-26.035156c-19.171875 0-34.714844-15.539062-34.714844-34.710937s15.542969-34.710938 34.714844-34.710938c19.167969 0 34.710937 15.539063 34.710937 34.710938s-15.542968 34.710937-34.710937 34.710937zm-8.59375-94.761718c2.835937-.5 5.714843-.730469 8.59375-.695313 2.878906-.035156 5.753906.195313 8.589843.695313-.347656 4.484374-4.089843 7.945312-8.589843 7.945312s-8.242188-3.460938-8.59375-7.945312zm45.039062 108.558593c-2.5-3.433593-2.128906-8.179687.875-11.183593 3.007813-3.007813 7.753907-3.378907 11.1875-.878907-3.390625 4.605469-7.457031 8.671875-12.0625 12.0625zm6.945313-83.132812c-2.296875-.003907-4.492188-.945313-6.078125-2.605469-2.265625-2.273438-3.070313-5.621094-2.082031-8.675781.203124-.941407.652343-1.808594 1.300781-2.519531 3.195312 2.316406 6.109375 4.996093 8.679687 7.984374 1.195313 1.25 2.296875 2.582032 3.296875 3.992188-1.441406 1.183594-3.253906 1.828125-5.117187 1.824219zm16.660156 43.214843c-4.488281-.347656-7.949219-4.089843-7.949219-8.589843s3.460938-8.242188 7.949219-8.59375c.925781 5.691406.925781 11.492187 0 17.183593zm192.304688 0c-.925782-5.691406-.925782-11.492187 0-17.183593 4.484374.351562 7.945312 4.09375 7.945312 8.59375s-3.460938 8.242187-7.945312 8.589843zm23.691406 40.007813c-4.605469-3.390625-8.675782-7.457031-12.0625-12.0625 3.394531-2.597656 8.191406-2.261719 11.191406.78125 3.039062 3.027344 3.410156 7.820313.871094 11.28125zm-12.152344-85.046875c3.390625-4.605469 7.457031-8.671875 12.0625-12.0625 1.644531 2.117188 2.160156 4.898438 1.390625 7.464844-.359375 1.449218-1.109375 2.769531-2.171875 3.816406-1.582031 1.660156-3.777344 2.601562-6.074219 2.605469-1.535156.027343-3.042969-.394531-4.339843-1.214844-.324219-.140625-.621094-.347656-.867188-.609375zm48.511719 97.195312c-2.878907.035157-5.753907-.199218-8.589844-.695312.347656-4.484375 4.089844-7.949219 8.589844-7.949219s8.242187 3.464844 8.589843 7.949219c-2.835937.496094-5.710937.730469-8.589843.695312zm0-26.035156c-15.289063.035156-28.796875-9.9375-33.269531-24.554687-4.476563-14.617188 1.140624-30.441407 13.832031-38.96875l.34375-.171875 12.0625-5.035156h.089843c2.285157-.457032 4.609376-.691407 6.941407-.691407 19.171875 0 34.710937 15.539063 34.710937 34.710938s-15.539062 34.710937-34.710937 34.710937zm-8.589844-94.761718c5.6875-.925782 11.492187-.925782 17.179687 0 .015626.261718-.015624.527343-.085937.78125-.714844 4.144531-4.300781 7.179687-8.503906 7.199218-1.769531-.011718-3.492188-.554687-4.945313-1.558594-2.136718-1.472656-3.480468-3.835937-3.644531-6.421874zm45.035156 108.558593c-2.5-3.433593-2.128906-8.179687.878907-11.183593 3.003906-3.007813 7.75-3.378907 11.183593-.878907-3.390625 4.605469-7.457031 8.671875-12.0625 12.0625zm12.0625-84.957031c-1.441406 1.183594-3.253906 1.828125-5.117187 1.824219-3.242188-.058594-6.179688-1.914063-7.621094-4.816407-1.445312-2.902343-1.148438-6.367187.765625-8.984374 4.535156 3.410156 8.566406 7.441406 11.972656 11.976562zm-360.914062-67.6875c37.183593.046875 71.535156 19.882812 90.164062 52.066406h132.078125c18.628906-32.183594 52.976563-52.019531 90.164063-52.066406 15.894531.121094 31.511719 4.179688 45.453125 11.820312-.214844.238282-.414063.492188-.589844.761719l-13.449219 20.132813c-2.675781-1.21875-5.429687-2.261719-8.246093-3.121094-.765626-.273438-1.550782-.503906-2.339844-.695312-1.996094-.609376-3.992188-1.042969-5.988282-1.476563l-3.296874-.519531c-.515626-.101563-1.039063-.160156-1.5625-.175782-1.824219-.257812-3.734376-.433593-5.640626-.605468-1.390624-.085938-2.863281-.085938-4.339843-.085938-6.859375.003906-13.683594.910156-20.308594 2.6875-2.167969.609375-4.335937 1.304688-6.507813 2.085938-1.214843.433594-2.34375.867187-3.558593 1.386718-2.339844.976563-4.628907 2.078126-6.855469 3.296876-2.167969 1.214843-4.335938 2.519531-6.421875 3.90625-2.085937 1.378906-4.085937 2.886718-5.984375 4.511718-1.910156 1.5625-3.820312 3.296875-5.554688 5.035156-.433593.433594-.867187.867188-1.304687 1.386719-.953125.957031-1.820313 1.910157-2.6875 2.949219-.347656.4375-.695313.78125-1.042969 1.214844-1.625 1.902344-3.132812 3.902344-4.511718 5.988281-1.757813 2.621094-3.351563 5.34375-4.773438 8.160156-.894531 1.664063-1.707031 3.371094-2.429688 5.117188-.640624 1.410156-1.191406 2.859375-1.648437 4.339843h-27.074219c.769532-2.914062 1.464844-5.867187 2.5-8.675781h-116.09375c1.03125 2.808594 1.734375 5.761719 2.496094 8.675781h-27.054688c-.375-1.21875-.839843-2.410156-1.390624-3.558593-.871094-2.230469-1.886719-4.40625-3.035157-6.507813-.78125-1.476562-1.5625-2.949218-2.429687-4.339844-.414063-.78125-.878906-1.535156-1.390625-2.253906-2.585938-4.003906-5.582031-7.726562-8.9375-11.109375-.207031-.359375-.472657-.679687-.78125-.953125-.085938-.175781-.261719-.261718-.347657-.433594h-.085937c-.382813-.398437-.789063-.777343-1.214844-1.128906-1.390625-1.300781-2.863281-2.605468-4.339843-3.90625-.605469-.519531-1.214844-.953125-1.820313-1.472656-1.738281-1.304688-3.472656-2.519531-5.296875-3.734375-2.253906-1.472656-4.597656-2.863281-6.941406-4.078125-1.734375-.867188-3.472656-1.734375-5.207032-2.429688-2.335937-1.035156-4.742187-1.902343-7.203124-2.601562-.769532-.273438-1.550782-.503906-2.34375-.695312-1.996094-.609376-3.988282-1.042969-5.984376-1.476563l-3.300781-.519531c-.511719-.101563-1.035156-.160156-1.558593-.175782-1.824219-.257812-3.734376-.433593-5.644532-.605468-1.386718-.085938-2.863281-.085938-4.335937-.085938-6.410157-.019531-12.792969.769532-19.007813 2.34375l-7.460937-22.476562c-.179688-.515625-.410157-1.011719-.695313-1.476563 8.761719-2.910156 17.929688-4.402343 27.164063-4.425781zm-36.449219 55.625c2.636719 3.417969 2.300781 8.261719-.78125 11.28125-2.988281 3.144531-7.886719 3.484375-11.28125.78125 3.390625-4.605469 7.457031-8.671875 12.0625-12.0625zm0 0"/><path d="m498.027344 162.972656-14.839844-29.679687c-.722656-1.460938-1.535156-2.882813-2.429688-4.25-.539062.472656-1.15625.855469-1.820312 1.128906l-36.1875 16.488281zm0 0"/><path d="m338.441406 60.746094c0 9.585937-7.769531 17.355468-17.355468 17.355468-9.585938 0-17.355469-7.769531-17.355469-17.355468 0-9.585938 7.769531-17.355469 17.355469-17.355469 9.585937 0 17.355468 7.769531 17.355468 17.355469zm0 0"/><path d="m144.316406 136.15625 69.25 46.082031h72.980469l13.539063-17.355469h-45.128907c-19.113281.003907-37.800781-5.640624-53.714843-16.226562l-29.332032-19.613281c-26.890625-17.894531-60.929687-21.210938-90.769531-8.851563-6.375 2.6875-12.453125 6.035156-18.136719 9.980469h61.871094c6.9375-.019531 13.714844 2.070313 19.441406 5.984375zm0 0"/><path d="m394.414062 79.402344-39.136718-13.015625c-1.691406 10.5625-8.203125 19.738281-17.617188 24.820312l9.199219 15.359375zm0 0"/></svg>